<svg xmlns="http://www.w3.org/2000/svg" viewBox="0 0 688 643"><path fill="#FEFEFE" d="M411 644H1V1h688v643zm-37.113-378.237c23.881-6.82 48.174-11.277 72.955-11.997-.393 1.62-.786 3.24-1.58 5.187l.1.747c.228-.216.457-.432 1.317-.877 1.813-2.026 3.626-4.052 6.363-6.026 5.491-.073 10.983-.23 16.474-.206 36.124.155 72.25.622 108.37.378 12.268-.083 24.534-1.833 36.78-3.043 2.565-.254 5.034-1.485 7.547-2.265l-.15-2.466c-30.971-3.881-61.66-9.836-93.054-11.99-.35-1.607-.396-3.365-1.1-4.8-11-22.463-17.323-46.369-21.607-70.846-1.919-10.96-3.155-22.057-4.267-33.135-.492-4.896 1.015-9.66 6.547-10.99 20.099-4.837 37.2-15.93 54.806-25.945 9.265-5.27 16.338-12.888 22.499-22.827-2.332 0-3.956-.402-5.246.084-2.628.989-5.121 2.374-7.591 3.738-29.617 16.357-60.305 29.246-94.488 32.887-26.286 2.8-48.959 14.456-68.233 32.453-4.512 4.212-8.154 9.357-12.196 14.073l1.275 1.693c2.374-.81 5.07-1.146 7.07-2.506 17.75-12.063 37.658-18.909 58.14-24.396 7.984-2.14 10.576-.117 9.176 7.93-4.531 26.032-9.034 52.078-14.262 77.975-2.255 11.17-6.262 21.989-10.356 33.119-25.317 5.684-50.634 11.369-76.05 16.026.114-15.213-2.04-30.107-5.611-44.893-3.52-14.564-.362-24.412 10.543-29.68 11.022-5.326 18.852-14.06 27.298-22.23 1.927-1.863 2.893-4.721 4.301-7.122l-1.216-.832c-1.113.657-2.21 1.342-3.342 1.967-10.177 5.611-20.065 11.858-30.607 16.67-17.172 7.84-35.409 11.623-54.34 9.524-10.348-1.147-20.55-3.604-31.111-5.807l-.76.195c.204.189.408.378.747 1.233 7.328 9.833 17.484 15.687 28.545 20.248 8.927 3.68 8.879 3.993 5.286 12.674-3.301 7.977-6.424 16.073-8.91 24.332-3.827 12.715-7.096 25.601-10.424 38.461-.271 1.05.52 3.146 1.358 3.51.989.428 2.716-.253 3.833-.93.7-.426.852-1.737 1.273-2.64 5.335-11.46 10.37-23.073 16.134-34.313 3.163-6.17 7.21-11.982 11.506-17.448 3.5-4.454 7.196-3.99 10.775.467 1.141 1.42 2.339 2.919 2.995 4.585 4.61 11.715 9.087 23.484 12.872 35.415-13.17 4.566-26.212 9.549-39.541 13.586-15.07 4.564-30.18 9.915-45.663 11.97-21.865 2.9-44.089 3.092-66.693 3.875-4.818-29.4-5.704-58.93-3.212-88.605.792-9.431 3.32-17.484 13.656-20.27 16.022-4.322 32.002-8.843 48.158-12.596 6.906-1.604 14.212-1.49 21.337-2.155l.115-1.837c-6.646-.803-13.274-1.814-19.94-2.371-20.285-1.696-39.739 1.576-58.46 9.705-24.228 10.519-49.464 17.714-75.592 21.587-10.727 1.59-21.544 2.57-33.486 3.963 28.56 8.594 55.759 4.057 83.218-2.095-.218 1.766-.224 2.764-.473 3.697-7.57 28.333-16.486 56.19-29.543 82.557-1.535 3.1-3.359 6.058-5.998 9.03-11.485-.33-22.968-.817-34.455-.928-5.933-.057-12.108-.384-17.763 1.038-16.423 4.132-32.645 9.066-48.927 13.75-1.61.463-3.095 1.366-4.639 2.066l-.091 1.62c2.939 1.116 5.798 2.558 8.829 3.296 22.462 5.463 45.424 6.234 68.38 7.31 55.328 2.594 109.206-4.814 161.584-22.843 27.313-9.402 54.555-19.011 82.07-27.846l4.343 7.228 1.673-.763c0-3.07 0-6.139.73-9.33m36.518 211.494c.843 3.729 1.632 7.47 2.544 11.182.909 3.701-.019 5.636-4.141 6.677-7.88 1.99-15.617 4.587-23.33 7.18-5.321 1.787-7.58 5.052-6.569 9.082 1.358 5.411 5.937 3.862 9.045 3.164 7.907-1.777 15.658-4.28 23.419-6.666 6.633-2.04 7.623-1.435 10.898 4.54 2.864 5.227 6.473 10.044 9.752 15.043l1.82-.92c-.36-1.417-.543-2.911-1.115-4.237-1.843-4.269-3.996-8.408-5.718-12.722-2.255-5.65-1.618-7.072 4.145-8.61 6.578-1.754 13.194-3.62 19.916-4.53 17.948-2.43 35.946-4.52 53.96-6.398 4.333-.451 8.884.266 12.541 5.43-42.447 32-90.694 48.598-142.028 58.336 2.164 1.182 4.338 2.427 6.476 2.367 10.274-.288 20.774.282 30.764-1.661 35.754-6.957 69.125-20.34 99.667-40.296 5.622-3.674 10.717-8.48 15.159-13.548 4.966-5.667 3.385-12.177-3.224-15.889-2.535-1.423-5.561-2.637-8.404-2.731-13.122-.435-26.257-.445-39.388-.598-2.145-.025-4.29-.003-7.559-.003 4.27-3.644 7.495-6.035 10.287-8.856 5.692-5.749 4.152-12.883-3.786-14.808-7.653-1.856-15.7-3.042-23.545-2.905-9.434.164-18.837 2.048-28.256 3.165-7.087.84-6.903.796-8.005-6.168-.264-1.672-2.208-3.077-3.38-4.605-1.475 1.575-3.33 2.95-4.295 4.792-.69 1.319.314 3.499-.335 4.87-.857 1.81-2.306 4.112-3.99 4.64-18.685 5.848-37.532 11.184-56.162 17.193-3.906 1.26-7.212 4.572-10.57 7.222-.964.76-1.14 2.517-1.678 3.816 1.452.551 3.05 1.803 4.33 1.534 6.322-1.327 12.663-2.735 18.807-4.708 14.844-4.769 29.608-9.79 44.347-14.878 4.763-1.644 6.984-.087 7.601 5.504m-307.212-27.624c-3.73 16.697-6.646 33.634-11.454 50.014-3.69 12.573-9.568 24.591-21.607 31.943-9.449 5.771-17.314 3.655-21.256-6.58-2.965-7.697-5.644-15.772-6.633-23.9-1.563-12.852-1.559-25.891-2.357-38.842-.09-1.464-.985-4.018-1.67-4.074-1.533-.125-3.613.578-4.687 1.697-4.611 4.801-8.99 9.776-7.383 17.383.393 1.86-.006 4.046-.568 5.924-5.012 16.769-3.943 33.98-3.61 51.098.063 3.258 1.84 6.625 3.404 9.641.65 1.251 3.028 2.587 4.242 2.298 1.34-.319 2.952-2.337 3.207-3.827.668-3.898.998-7.925.844-11.876-.25-6.481-1.067-12.938-1.473-19.415-.109-1.73.406-3.497.635-5.247 1.545 1.97 2.173 3.846 2.775 5.732 2.769 8.678 4.648 17.67 10.608 25.069 11.884 14.751 26.094 15.122 37.868.259 23.031-29.076 27.702-63.658 28.753-99.153.065-2.198-2.317-4.469-3.56-6.706l-1.817.473a4609 4609 0 0 1-4.261 18.09M614.773 10.728c-.176-.984-.2-2.028-.563-2.938-.547-1.371-1.33-2.648-2.014-3.965-.783 1.39-1.99 2.7-2.269 4.184-.872 4.628-1.393 9.323-2.136 14.598-2.49-1.875-4.213-3.447-6.195-4.557-1.073-.6-2.587-.413-3.903-.58.247 1.185.183 2.578.806 3.512 1.312 1.969 2.985 3.697 4.929 6.025-5.906.733-10.873 1.252-15.8 2.03-1.281.201-2.436 1.212-3.649 1.851 1.223.798 2.362 2.075 3.685 2.308 4.98.874 10.021 1.407 15.684 2.153-2.021 2.43-3.714 4.237-5.108 6.251-.566.819-.484 2.087-.696 3.15 1.199.007 2.658.454 3.545-.069 2.23-1.313 4.202-3.065 6.751-5.001.758 5.681 1.348 10.749 2.172 15.778.181 1.107 1.191 2.079 1.82 3.113.768-1.05 2.017-2.015 2.221-3.165.886-5.004 1.468-10.063 2.249-15.745 2.553 1.938 4.55 3.64 6.748 5.024.807.509 2.087.267 3.152.367-.079-1.17.243-2.598-.315-3.456-1.384-2.13-3.17-3.999-5.061-6.299 5.58-.715 10.382-1.179 15.117-2.026 1.483-.266 2.782-1.563 4.165-2.388-1.373-.649-2.688-1.644-4.128-1.883-4.827-.801-9.698-1.332-14.95-2.019l6.702-9.257c-5.817-2.158-7.457 3.874-11.582 4.18-.43-3.48-.852-6.906-1.377-11.176m-61.886 483.786c-5.327.707-10.827.828-15.923 2.323-3.572 1.048-3.855 4.711-2.043 7.959 1.893 3.393 4.07.875 6.342.326 5.23-1.265 10.543-2.724 15.863-2.908 3.857-.133 7.746 1.697 8.926 6.487-.696.113-1.178.272-1.653.252-1.33-.053-2.656-.18-3.984-.279-10.668-.786-19.656 2.932-26.793 10.697-7.02 7.637-4.498 17.723 5.51 20.342 5.76 1.508 12.231 1.726 18.135.853 5.704-.843 10.927-4.03 14.045-11.149-3.12.599-5.015.959-6.91 1.326-6.018 1.168-11.994 2.726-18.068 3.399-5.872.65-8.952-3.974-6.605-9.41 2.224-5.15 5.92-9.238 11.678-9.728 4.841-.412 9.832.291 14.695.952 6.029.819 7.566-.48 5.846-6.375-2.63-9.014-9.448-13.225-19.061-15.067M479.719 93.987c8.573 3.73 15.026 1.375 17.133-6.253 2.304-8.338-1.727-20.377-8.57-25.595-7.108-5.42-16.388-2.384-18.255 6.303-2.172 10.107.819 18.646 9.692 25.545M252.954 532.365c-.713-2.505-2.446-5.252-1.92-7.463.991-4.173 4.597-6.844 8.888-6.746 4.928.112 9.824 1.373 14.75 2.004 1.86.238 3.766.11 5.65.149-.078-2.228-.03-4.471-.296-6.677-.11-.918-.814-1.808-1.377-2.623-5.102-7.384-26.01-11.045-33.192-5.65-1.041.781-1.927 2.952-1.57 4.052.305.935 2.57 1.861 3.856 1.725 3.287-.347 6.504-1.331 9.764-1.985 6.596-1.323 14.634 1.543 17.04 6.622-2.169-.465-3.881-.794-5.575-1.201-7.387-1.776-14.523-1.232-21.279 2.402-7.927 4.264-8.578 12.533-1.417 18.157 12.713 9.985 26.833 6.044 37.37-2.706.913-.758 1.208-2.26 1.79-3.418l-1.042-1.166c-5.291 2.122-10.615 4.168-15.865 6.387-5.274 2.229-10.292 2.515-15.575-1.863m-59.487-24.531c-12.852 5.983-17.749 17.292-12.288 28.376 3.055 6.199 9.622 9.092 15.837 6.197 4.753-2.214 9.401-5.006 13.429-8.346 6.53-5.414 7.78-13.244 3.957-19.644-4.285-7.172-11.967-9.799-20.935-6.583m5.22-337.782c6.11 1.378 11.843-.88 14.298-6.05 3.712-7.814 3.783-15.749-.462-23.4-4.542-8.187-14.612-8.516-20.004-.801-6.552 9.373-4.06 23.122 6.169 30.25m288.57 202.257-.888 17.338c-4.799-5.63-8.263-11.5-12.285-16.956-1.105-1.5-3.848-2.207-5.904-2.351-.643-.045-2.062 2.913-2.163 4.556-.54 8.81-.777 17.639-1.118 26.461-.087 2.242-.228 4.573 3 4.587 3.08.014 3.812-1.766 3.74-4.595-.164-6.365-.052-12.737-.052-19.106l1.313-.185c3.98 6.265 7.823 12.624 12.02 18.74 1.336 1.95 3.61 3.256 5.454 4.857.811-2.288 2.165-4.535 2.336-6.87.61-8.3.913-16.626 1.08-24.948.028-1.356-.995-3.66-1.926-3.883-1.278-.305-2.93.958-4.606 2.355m157.365 157.92c-3.24-1.876-6.342-3.598-4.853-8.45 1.45-4.73 4.396-5.194 8.773-4.955 5.058.275 10.281-.15 15.238-1.194 3.349-.707 6.707-2.95 6.034-7.35-.726-4.753-4.93-5.651-8.418-5.136-5.672.837-11.58 2.042-16.646 4.577-8.639 4.322-13.553 17.948-10.127 25.188 3.202 6.768 9.189 7.65 15.578 7.265 7.516-.454 13.172-4.74 18.647-8.84-8.057-.244-15.798-.48-24.226-1.105m-470.922 4.941c-1.837-.488-3.648-1.211-5.517-1.42-5.911-.657-11.991-.494-17.728-1.839-5.654-1.325-6.19-4.889-2.05-8.89 5.28-5.104 11.341-8.562 18.875-9.244 1.497-.135 2.86-1.738 4.286-2.665-1.27-1.58-2.3-3.503-3.896-4.62-1.033-.722-2.923-.5-4.374-.299-8.696 1.21-16.107 5.205-22.283 11.27-4.958 4.868-4.872 11.888-.33 17.1 8.076 9.266 23.757 9.868 33.017.607m162.004-382.683c-.139 5.524-.946 11.137-.222 16.546.676 5.042 5.214 7.825 10.268 7.596 4.886-.222 9.154-2.127 9.894-7.353.704-4.971.706-10.167.12-15.159-.517-4.42-3.474-7.508-8.236-8.086-5.054-.614-9.243.694-11.824 6.456M273.93 388.498c.004 4.664-.257 9.354.199 13.973.114 1.156 2.536 2.083 3.897 3.116.907-1.287 2.382-2.489 2.587-3.88.309-2.082-.274-4.297-.573-7.458 4.925 3.693 8.743 6.923 12.955 9.513 1.43.88 3.854.145 5.823.147-.714-1.74-.954-4.05-2.232-5.115-3.648-3.037-7.718-5.567-11.895-8.488 3.184-1.96 6.568-3.178 8.608-5.55 1.942-2.258 3.782-6.001 3.233-8.572-.453-2.126-4.24-4.182-6.939-5.034-3.704-1.17-7.784-1.546-11.687-1.467-1.315.027-3.529 2.375-3.692 3.845-.513 4.61-.246 9.308-.284 14.97M233.025 529.16c-.42-11.636-.85-23.272-1.253-34.909-.178-5.151-.14-10.316-.517-15.452-.206-2.798-1.57-5.684-4.858-4.914-1.35.317-2.9 3.306-2.94 5.111-.303 13.14-.569 26.297-.138 39.426.171 5.202 1.774 10.47 3.458 15.462.808 2.395 3.322 4.215 5.064 6.296l1.221-.797c0-3.107 0-6.213-.037-10.223m97.61-130.135c3.965-6.87 4.721-14.094 1.807-21.459-2.323-5.872-7.454-8.503-14.593-7.916-5.359.44-7.879 4.282-8.805 8.804-1.148 5.604-2.089 11.42-1.867 17.097.319 8.182 6.909 12.497 14.643 9.831 3.085-1.063 5.595-3.798 8.815-6.357m-140.843-2.98 9.92-2.674c1.208 4.064 1.807 7.225 3.133 10.044.65 1.383 2.651 2.131 4.041 3.166.708-1.73 2.06-3.497 1.97-5.185-.13-2.404-1.36-4.74-2.048-7.124-2.023-7.005-3.84-14.076-6.15-20.984-.5-1.493-2.626-3.13-4.192-3.349-1.128-.158-3.161 1.666-3.775 3.055-4.071 9.206-7.98 18.488-11.621 27.87-.5 1.29.78 3.269 1.236 4.928 1.644-.975 3.747-1.604 4.812-3.015 1.24-1.643 1.57-3.97 2.674-6.732m216.91 198.321 4.083-4.199c2.436 2.016 3.826 3.393 5.466 4.338.341.197 2.398-1.358 2.305-1.843-.414-2.142-1.11-4.305-2.157-6.212-.438-.799-1.963-1.217-3.061-1.399-4.27-.705-7.788.403-10.39 4.198-4.514 6.585-6.349 13.924-5.789 21.712.177 2.457 1.7 6.064 3.569 6.846 2.467 1.033 5.947.088 8.861-.578 1.42-.325 2.542-1.946 2.977-2.304l4.909 3.506c.646-1.777 1.7-3.523 1.838-5.34.185-2.424-.34-4.903-.561-7.358l1.06.385 3.168-4.55c-1.85-.564-3.668-1.325-5.56-1.634-1.615-.265-3.328-.138-4.973.042-2.421.265-6.033-1.19-6.275 2.736-.064 1.048 3.278 2.305 5.89 4.011l-8.235 7.86c-1.825-8.138.021-13.895 2.876-20.217m-4.95-189.034c5.275-3.04 10.843-5.676 15.735-9.24 4.203-3.062 5.364-8.178 2.255-11.341-5.377-5.472-11.516-10.29-17.791-14.74-2.67-1.893-5.36-.75-5.4 3.486-.087 9.118-.006 18.267-.76 27.34-.4 4.82 1.258 5.636 5.961 4.495m46.176-29.585 4.75-3.246c-1.067-.842-2.133-2.404-3.202-2.406-5.759-.01-11.518.368-17.165.607 0 10.418-.2 20.039.115 29.643.101 3.1 2.035 5.653 5.838 5.465 4.802-.236 9.628-.305 14.383-.914 1.279-.164 2.34-2.025 3.502-3.108-1.142-.851-2.269-2.404-3.43-2.43-4.423-.1-8.857.292-13.581.514l-.431-8.413c3.5-.154 6.524.02 9.406-.54 1.516-.295 2.784-1.871 4.164-2.869-1.513-.825-2.98-2.225-4.55-2.354-3.031-.25-6.121.217-9.352.396v-10.352c3.078 0 5.879 0 9.553.007m92.796 21.574c-.035.832-.056 1.664-.107 2.495-.348 5.698.277 6.328 6.079 6.013 3.82-.207 7.671-.23 11.444-.776 1.627-.236 3.092-1.59 4.63-2.437-1.608-1.009-3.133-2.669-4.843-2.89-3.513-.453-7.126-.136-10.63-.136v-7.532c2.723 0 5.255.355 7.624-.116 1.783-.354 3.356-1.766 5.023-2.707-1.794-.93-3.505-2.346-5.401-2.664-2.33-.39-4.812.136-7.245.267v-10.957c3.545 0 6.861.263 10.097-.133 1.245-.153 2.307-1.805 3.452-2.774-1.103-.936-2.153-2.596-3.318-2.68-4.474-.322-8.985-.136-13.483-.147-2.913-.008-3.482 1.62-3.422 4.235.168 7.324.093 14.654.1 22.939M347.29 376.144c-.48-1.41-.551-3.393-1.535-4.091-1.407-.999-3.48-1.057-5.27-1.517-.235 1.527-.973 3.19-.603 4.553.82 3.014 2.245 5.86 3.337 8.806 2.184 5.897 3.891 12.023 6.675 17.617 1.052 2.113 4.538 3.015 6.915 4.47 1.009-1.832 2.436-3.554 2.955-5.516 2.196-8.303 4.145-16.672 6.13-25.03.515-2.168 1.794-4.721-1.791-5.59-3.07-.745-3.94.99-4.574 3.665-1.566 6.594-3.459 13.112-5.607 21.1-2.445-6.888-4.374-12.322-6.632-18.467m-60.685 208.792c-9.154 4.81-10.613 13.32-10.68 22.427-.035 4.752 1.174 8.943 6.25 10.789 4.588 1.668 10.098.07 13.541-3.882 4.987-5.723 6.335-16.72 2.886-23.537-2.392-4.727-6.239-6.765-11.997-5.797m96.497 19.971 3.935-2.751c-1.317-.969-2.538-2.554-3.97-2.775-2.858-.44-5.832-.13-8.71-.13v-8.343c3.61 0 6.805.314 9.892-.129 1.618-.232 3.045-1.79 4.559-2.75-1.45-.94-2.812-2.482-4.363-2.705-4.08-.585-8.245-.565-12.372-.848-3.13-.216-3.916 1.44-4.023 4.257-.326 8.626-.798 17.248-1.337 25.864-.238 3.806 1.875 4.609 4.968 4.24 4.55-.542 9.127-1.011 13.604-1.94 1.359-.282 2.424-1.98 3.625-3.029-1.242-.74-2.444-2.025-3.733-2.119-3.89-.282-7.813-.102-11.697-.102-.507-6.787-.507-6.788 5.73-6.8.997-.001 1.994.021 3.892.06m-296.226-13.38c-3.291 5.75-3.697 11.97-2.82 18.336.571 4.154 3.004 6.852 7.01 8.236 4.215 1.454 7.825.673 10.966-2.471 5.563-5.568 7.728-18.144 4.326-25.229-2.436-5.075-7.77-7.446-12.262-5-2.536 1.38-4.61 3.61-7.22 6.128m504.172-93.943c-2.881 1.458-4.576.053-6.199-2.258-.744-1.06-2.205-1.616-3.341-2.4-.802 1.348-2.34 2.723-2.292 4.04.453 12.427 1.009 24.857 1.963 37.253.19 2.455 2.208 4.768 3.383 7.147l1.427-.373c.292-1.718.789-3.431.839-5.157.149-5.157.333-10.328.117-15.478-.356-8.518 3.138-14.72 10.417-19.004 1.626-.957 3.003-2.337 4.495-3.522l-.544-1.931c-3.17.436-6.34.873-10.265 1.683M262.755 382.95c-.06-2.924.963-6.572-.406-8.621-2.936-4.396-16.017-6.072-21.417-3.461 0 9.67.022 19.455-.016 29.24-.01 2.59-.167 5.48 3.392 5.382 3.743-.103 3.295-3.22 2.83-5.605-.702-3.601 1.122-5.024 3.893-6.84 4.078-2.673 7.545-6.279 11.724-10.095m33.922 124.106c2.062-.598 4.286-.895 6.134-1.889 1.493-.802 2.534-2.446 3.776-3.716-1.804-.873-3.824-2.75-5.37-2.419-3.66.787-7.682 1.93-10.435 4.256-2.154 1.82-3.601 5.67-3.492 8.548.072 1.881 3.225 4.126 5.47 5.32 2.727 1.452 6.006 1.823 8.947 2.925 4.09 1.532 9.578 2.365 9.036 8.213-.532 5.74-5.863 5.865-10.296 6.632-3.275.567-6.514 1.345-10.263 2.132 4.396 5.028 9.5 5.863 15.865 3.283 4.56-1.848 8.973-3.77 9.067-9.829.083-5.362-2.674-9.25-8.785-11.978-3.176-1.418-6.356-2.826-9.516-4.28-3.9-1.795-4.728-4.004-.138-7.198m312.4 16.485c1.06 11.733 1.525 13.08 5.6 15.46 1.936-14.287-.092-30 14.909-39.784-3.473-.333-6.377.321-9.303.437-1.687.067-3.445-.627-5.107-1.174-1.876-.618-4.074-2.442-5.402-1.912-1.283.511-2.338 3.377-2.275 5.165.247 6.974.977 13.93 1.578 21.808m-96.822-133.694c1.176-5.66 2.144-11.431 6.652-14.227 2.869 1.055 4.755 1.93 6.736 2.31.352.067 1.825-2.512 1.542-2.86-1.532-1.882-3.195-4.326-5.293-4.941-4.63-1.359-8.741.769-10.997 4.836-2.209 3.983-4.206 8.36-5.01 12.796-2.504 13.812 7.23 21.785 20.451 16.891 1.78-.658 4.312-3.635 3.974-4.817-.877-3.066-3.671-2.334-6.19-1.251-8.2 3.523-11.543 1.266-11.865-8.737M158.783 618.14c.997-.006 2.113.274 2.965-.08 1.566-.65 2.976-1.674 4.451-2.542-1.496-.867-2.92-2.276-4.502-2.485-3.024-.4-6.138-.116-9.342-.116v-7.006c2.843 0 5.501.3 8.037-.126 1.282-.216 2.344-1.746 3.505-2.681-1.15-.932-2.216-2.5-3.465-2.663-2.528-.328-5.155.105-7.675.222-1.841-10.13-1.507-10.424 7.507-10.24 1.476.029 2.987-1.723 4.482-2.65-1.294-.9-2.519-2.428-3.893-2.577-3.45-.372-6.97-.018-10.455-.148-3.267-.123-4.39 1.34-4.314 4.507.154 6.311.068 12.627.06 18.942-.015 11.525-.021 11.525 12.64 9.643m443.864-5.035c.823-2.018 2.864-5.23 2.258-5.849-2.66-2.717-4.855-.71-6.89 1.694-1.252 1.478-3.012 2.61-4.715 3.604-2.44 1.426-4.04.444-4.935-2.136-1.828-5.278 1.631-16.477 6.25-19.52 1.074-.708 2.56-.793 3.17-.968 1.156 2.293 1.72 4.084 2.874 5.33.387.419 3.2-.366 3.31-.918.423-2.12.755-4.582.025-6.499-.508-1.333-2.69-2.455-4.324-2.857-5.296-1.3-9.482.948-12.604 5.088-4.634 6.146-6.123 13.192-5.116 20.754.805 6.042 5.735 9.468 11.524 7.564 3.069-1.009 5.753-3.184 9.173-5.287m25.786-22.901 5.132-2.628c-1.682-.866-3.314-2.322-5.057-2.472-3.455-.296-7.034-.206-10.435.417-1.402.257-3.512 2.284-3.531 3.532-.121 7.974.159 15.96.503 23.933.155 3.585 1.895 5.978 5.942 5.745 3.976-.229 7.983-.255 11.908-.833 1.41-.208 2.62-1.766 3.921-2.708-1.292-.885-2.548-2.452-3.883-2.523-3.751-.199-7.534.22-11.619.409v-8.187c3.168 0 6.02.296 8.754-.14 1.149-.184 2.05-1.916 3.064-2.944-1.109-.734-2.183-2.022-3.333-2.093-2.915-.18-5.863.186-9.036.345l-.55-9.183c2.797-.255 5.078-.463 8.22-.67M30.66 585.063c-1.822.116-3.807-.169-5.415.48-1.226.494-2.802 2.17-2.804 3.323-.015 8.126.205 16.26.634 24.376.189 3.567 2.132 5.826 6.15 5.513 3.796-.296 7.641-.243 11.377-.869 1.532-.257 2.833-1.89 4.24-2.897-1.525-.843-3.016-2.317-4.581-2.402-3.553-.192-7.142.3-11.016.531v-8.202c2.997 0 5.82.285 8.538-.13 1.215-.185 2.214-1.776 3.312-2.73-1.187-.833-2.324-2.276-3.57-2.376-2.732-.219-5.519.242-8.607.448l-.72-9.311c3.588-.242 6.73-.212 9.76-.778 1.225-.229 2.206-1.762 3.298-2.702-1.059-.788-2.036-2.065-3.194-2.258-2.097-.35-4.302-.054-7.402-.016m414.466 19.876 3.97-3.194c-1.453-.687-2.855-1.775-4.372-1.972-2.54-.329-5.152-.09-7.964-.09l-.468-8.945c3.725-.217 6.886-.19 9.96-.691 1.121-.184 2.037-1.627 3.046-2.495-.997-.858-1.964-2.41-2.995-2.453-4.141-.174-8.346-.183-12.431.41-1.328.194-3.35 2.4-3.368 3.71-.109 7.798.215 15.604.521 23.403.149 3.781 1.763 6.379 6.087 6.12 3.805-.228 7.648-.237 11.391-.85 1.555-.256 2.892-1.832 4.328-2.808-1.493-.87-2.95-2.392-4.488-2.48-3.564-.202-7.166.29-11.078.518v-7.857c2.396-.109 4.68-.212 7.861-.326M264.071 586.49c-6.197-3.245-11.973-1.949-16.128 3.723-4.547 6.207-6.009 13.213-4.971 20.752.816 5.93 6.013 9.508 11.608 7.383 3.623-1.375 6.938-3.834 9.99-6.302 1.133-.917 1.123-3.247 1.634-4.933-2.051.196-4.321-.088-6.094.72-1.855.846-3.073 2.99-4.85 4.127-3.53 2.256-5.77 1.255-6.16-2.878-.579-6.167.894-11.94 4.99-16.696 1.191-1.384 3.268-2.005 3.772-2.298 2.301 2.484 3.839 5.36 5.053 5.23 3.945-.424 3.295-3.771 2.746-6.6-.117-.604-.676-1.122-1.59-2.228m396.033 12.941-7.734.432v-9.26c2.973 0 5.644.286 8.205-.121 1.276-.204 2.35-1.676 3.517-2.575-1.15-.919-2.226-2.49-3.466-2.634-3.619-.418-7.342-.59-10.943-.164-1.292.153-3.286 2.234-3.362 3.53-.469 7.97-.564 15.968-.61 23.957-.025 4.249 2.534 6.259 6.71 5.91 3.307-.277 6.666-.065 9.94-.52 1.442-.2 2.73-1.513 4.089-2.321-1.331-.936-2.588-2.514-4.008-2.68-3.407-.395-6.892-.128-10.718-.128l.474-7.528c2.8-.146 5.136-.06 7.384-.467 1.255-.228 2.361-1.276 3.535-1.954-.737-1.097-1.474-2.194-3.013-3.477m-588.07 17.385 1.824-5.36c-1.732.077-3.492-.012-5.186.281-1.435.249-2.758 1.142-4.192 1.392-2.757.48-5.63.528-6.076-3.188-.855-7.131 1.014-13.55 6.001-18.796 1.69-1.778 3.533-2.207 5.056.813.66 1.309 2.731 1.906 4.162 2.826.315-1.901 1.384-4.075.813-5.655-2.102-5.811-11.213-6.383-15.766-.662-2.598 3.264-4.466 7.384-5.672 11.415-1.673 5.59-2.884 11.96 1.818 16.497 4.803 4.635 10.902 2.435 17.218.437m96.09-217.653-10.485 1.19c1.107-8.944 2.275-17.134 3.002-25.363.14-1.589-1.45-3.33-2.242-5.001-1.413 1.245-3.89 2.356-4.068 3.759-1.172 9.23-1.874 18.522-2.671 27.799-.269 3.124 1.171 4.663 4.416 4.393 4.31-.36 8.697-.282 12.906-1.123 2.02-.403 5.231-2.461 5.25-3.806.05-3.738-3.287-1.76-6.109-1.848m398.757 212.23c2.355-6.896 4.863-13.747 6.952-20.724.495-1.654.158-4.944-.784-5.388-2.985-1.408-4.332.932-5.116 3.61-.717 2.449-1.646 4.834-2.904 8.469-2.582-4.221-4.29-7.607-6.604-10.512-.96-1.206-3.213-1.383-4.878-2.029-.118 1.597-.841 3.49-.233 4.73 1.45 2.956 3.2 5.906 5.427 8.304 3.602 3.879 4.123 7.746 2.231 12.628-.965 2.49-3.938 6.597.783 7.972 4.848 1.413 3.709-3.78 5.126-7.06m-240.693 6.474c2.25-.127 5.387.431 4.75-3.124-.205-1.142-3.108-2.377-4.87-2.537-3.213-.293-6.496.185-9.977.352 0-7.44.035-14.572-.02-21.703-.017-2.323 1.108-5.602-2.741-5.78-3.857-.18-3.107 3.084-3.198 5.467-.306 7.967-.522 15.937-.864 23.902-.163 3.802 1.905 4.438 5.086 4.116 3.627-.367 7.278-.496 11.834-.693m207.888-27.988c-.301 8.11-.507 16.225-.947 24.327-.192 3.528 1.167 4.887 4.627 4.566 3.629-.336 7.324-.216 10.89-.854 1.564-.28 2.881-1.945 4.31-2.98-1.656-.855-3.259-2.274-4.98-2.435-2.823-.265-5.724.286-7.703.43 0-8.173.144-15.626-.11-23.066-.057-1.66-1.162-4.27-2.397-4.706-2.89-1.02-3.465 1.498-3.69 4.718M135.914 612.37l-10.756.475c0-8.02-.092-15.307.054-22.59.046-2.339 1.032-4.948-2.534-5.254-3.894-.334-3.491 2.729-3.599 5.141-.362 8.113-.583 16.232-.979 24.343-.16 3.262 1.199 4.596 4.407 4.334 3.964-.324 7.961-.36 11.897-.878 3.277-.43 5.112-1.955 1.51-5.571m204.214 5.953c4.918.006 9.847.196 14.746-.1 1.39-.085 2.692-1.59 4.034-2.444-1.301-.954-2.517-2.54-3.922-2.731-3.068-.42-6.232-.13-9.394-.13 0-8.126.135-15.889-.118-23.639-.049-1.483-1.627-2.915-2.5-4.371-1.249.986-3.562 1.951-3.582 2.962-.199 9.952-.016 19.911.736 30.453m36.284-215.7 4.281 2.644c.768-1.248 2.148-2.468 2.207-3.749.411-8.942.517-17.897.797-26.846.078-2.501.012-4.98-3.19-5.075-3.155-.094-3.42 2.231-3.456 4.817-.127 9.122-.426 18.242-.639 28.21M202.521 609.069c4.677 2.32 5.974-2.03 8.244-4.28 1.9-1.883 4.128-4.22 1.02-6.63-3.002-2.327-5.495-6.884-10.546-3.65-8.019 5.135-8.13 7.507-.567 13.347.392.303.808.578 1.849 1.213m282.936-13.136c-1.422 2.212-4.516 5.698-3.971 6.414 2.213 2.909 5.28 5.568 8.599 7.029 1.23.541 4.35-2.164 6.003-3.949 1.412-1.524 3.054-4.095 2.678-5.773-1.051-4.7-8.617-6.902-13.31-3.72M122.42 526.746l3.825 10.285c7.212-6.797 4.708-26.934-4.028-29.759 0 6.457 0 12.54.203 19.474m542.587-47.092-23.504 10.328c10.093 4.686 27.211-3.09 30.494-12.74-2.345.757-4.334 1.4-6.99 2.412m-292.241 96.953c2.64 1.696 5.154 3.671 7.982 4.951 1.148.52 3.032-.347 4.45-.913.228-.091.14-2.427-.441-2.85-2.926-2.135-5.983-4.132-9.18-5.827-.907-.48-3.028-.207-3.53.488-.575.794.037 2.445.719 4.151m256.315-2.666c-2.547 1.178-5.237 2.132-7.576 3.634-1.082.694-1.477 2.458-2.184 3.737 1.453.476 3.145 1.672 4.311 1.285 2.787-.925 5.42-2.448 7.913-4.045.909-.583 1.244-2.06 1.841-3.13-1.208-.548-2.416-1.097-4.305-1.48m-599.365 8.976c3.542-1.612 7.128-3.139 10.588-4.911.643-.33 1.307-1.945 1.028-2.44-.458-.814-1.942-1.88-2.539-1.652-3.78 1.446-7.465 3.16-11.047 5.041-.203.107.79 2.486 1.97 3.962m93.562-87.115c-3.345-.077-4.392 1.832-2.73 4.327.992 1.488 3.326 2.2 5.194 2.884.37.135 2.118-1.884 1.954-2.165-1.034-1.77-2.427-3.332-4.418-5.046"/><path fill="#C73D7A" d="M445.663 258.625c.393-1.62.786-3.24 1.356-5.56 1.131-4.301 2.086-7.903 3.04-11.505 3.211-10.978 7.218-21.796 9.473-32.967 5.228-25.897 9.73-51.943 14.262-77.975 1.4-8.047-1.192-10.07-9.176-7.93-20.482 5.487-40.39 12.333-58.14 24.396-2 1.36-4.696 1.696-7.07 2.506l-1.275-1.693c4.042-4.716 7.684-9.86 12.196-14.073 19.274-17.998 41.947-29.653 68.233-32.453 34.183-3.64 64.87-16.53 94.488-32.887 2.47-1.364 4.963-2.75 7.591-3.738 1.29-.486 2.914-.084 5.246-.084-6.16 9.94-13.234 17.558-22.499 22.827-17.606 10.014-34.707 21.108-54.806 25.945-5.532 1.33-7.039 6.094-6.547 10.99 1.112 11.078 2.348 22.175 4.267 33.135 4.284 24.477 10.606 48.383 21.608 70.845.703 1.436.748 3.194.978 5.479-1.297.472-2.473.268-3.775-.26-22.927-17.765-29.216-43.95-36.485-71.058-.55 2.706-.744 3.851-1.019 4.977-6.117 25.08-13.82 49.577-26.81 72.454-3.074 4.397-5.878 8.573-8.682 12.748-1.812 2.027-3.625 4.053-5.85 6.087-.413.009-.604-.206-.604-.206"/><path fill="#1D1C1C" d="M366.902 267.947c-27.275 9.516-54.517 19.125-81.83 28.527-52.378 18.029-106.256 25.437-161.584 22.843-22.956-1.076-45.918-1.847-68.38-7.31-3.031-.738-5.89-2.18-8.83-3.296l.092-1.62c1.544-.7 3.028-1.603 4.64-2.066 16.281-4.684 32.503-9.618 48.926-13.75 5.655-1.422 11.83-1.095 17.763-1.038 11.487.11 22.97.597 34.896 1.294.22 1.241-.001 2.117-.38 3.234-.1.51-.042.78.015 1.051.357-.17.713-.341 1.364-.632 1.904-1.453 3.514-2.786 5.6-4.03 15.614.034 30.754-.021 46.09.187 2.265 2.498 4.333 4.733 6.4 6.969l1.224-.94v-6.248c22.07-1.35 44.294-1.541 66.159-4.443 15.484-2.054 30.593-7.405 45.663-11.969 13.329-4.037 26.372-9.02 40.176-13.427 1.09 2.327 1.543 4.496 1.996 6.664"/><path fill="#1F1E1E" d="M410.297 476.862c-.508-5.196-2.729-6.753-7.492-5.109-14.739 5.088-29.503 10.11-44.347 14.878-6.144 1.973-12.485 3.381-18.808 4.708-1.279.269-2.877-.983-4.329-1.534.538-1.3.714-3.056 1.678-3.816 3.358-2.65 6.664-5.961 10.57-7.222 18.63-6.01 37.477-11.345 56.161-17.194 1.685-.527 3.134-2.83 3.99-4.64.65-1.37-.354-3.55.336-4.869.964-1.842 2.82-3.217 4.295-4.792 1.172 1.528 3.116 2.933 3.38 4.605 1.102 6.964.918 7.009 8.005 6.168 9.42-1.117 18.822-3 28.256-3.165 7.846-.137 15.892 1.05 23.545 2.905 7.938 1.925 9.478 9.06 3.786 14.808-2.792 2.82-6.017 5.212-10.287 8.856 3.268 0 5.414-.022 7.56.003 13.13.153 26.265.163 39.387.598 2.843.094 5.869 1.308 8.404 2.731 6.61 3.712 8.19 10.222 3.224 15.89-4.442 5.068-9.537 9.873-15.16 13.547-30.54 19.956-63.912 33.34-99.666 40.296-9.99 1.943-20.49 1.373-30.764 1.661-2.138.06-4.312-1.185-6.476-2.367 51.334-9.738 99.581-26.335 142.028-58.336-3.657-5.164-8.208-5.881-12.54-5.43-18.015 1.877-36.013 3.969-53.961 6.398-6.722.91-13.338 2.776-19.916 4.53-5.763 1.538-6.4 2.96-4.145 8.61 1.722 4.314 3.875 8.453 5.718 12.722.572 1.326.754 2.82 1.115 4.237l-1.82.92c-3.28-4.999-6.888-9.816-9.752-15.042-3.275-5.976-4.265-6.58-10.898-4.541-7.76 2.386-15.512 4.89-23.42 6.666-3.107.698-7.686 2.247-9.044-3.164-1.012-4.03 1.248-7.295 6.569-9.083 7.713-2.592 15.45-5.19 23.33-7.179 4.122-1.04 5.05-2.976 4.14-6.677-.911-3.711-1.7-7.453-2.652-11.577m8.938 4.25 2.098 9.54c14.976.56 44.73-14.09 48.673-24.447-2.074-.489-4.05-1.395-5.997-1.34-12.067.339-24.164.475-36.18 1.501-10.748.919-10.704 1.386-8.868 11.898.114.652.1 1.327.274 2.848"/><path fill="#53A2CB" d="M152.373 294.524c.22-.876.441-1.752.696-2.967 1.724-3.364 3.548-6.322 5.083-9.422 13.057-26.367 21.972-54.224 29.543-82.557.249-.933.255-1.931.473-3.697-27.46 6.152-54.658 10.689-83.218 2.095 11.942-1.393 22.76-2.373 33.486-3.963 26.128-3.873 51.364-11.068 75.592-21.587 18.721-8.129 38.175-11.401 58.46-9.705 6.666.557 13.294 1.568 19.94 2.371l-.115 1.837c-7.125.666-14.43.55-21.337 2.155-16.156 3.753-32.136 8.274-48.158 12.595-10.336 2.787-12.864 10.84-13.656 20.27-2.492 29.675-1.606 59.207 3.479 88.89.267 2.366.267 4.449.267 6.531l-1.224.94c-2.067-2.236-4.135-4.47-6.453-7.346-1.9-8.402-3.921-16.108-5.116-23.94-1.837-12.043-3.107-24.173-4.785-37.602-5.977 11.888-10.628 22.593-16.56 32.533-6.026 10.096-13.316 19.439-20.052 29.11-1.61 1.333-3.22 2.666-5.345 3.911-.677-.208-.839-.33-1-.452"/><path fill="#EAB54D" d="M367.022 268.288c-.573-2.51-1.027-4.678-1.749-7.095-4.787-12-9.264-23.769-13.874-35.484-.656-1.666-1.854-3.164-2.995-4.585-3.58-4.456-7.275-4.921-10.775-.467-4.296 5.466-8.343 11.278-11.506 17.448-5.764 11.24-10.799 22.853-16.134 34.312-.42.904-.573 2.215-1.273 2.64-1.117.678-2.844 1.359-3.833.93-.838-.363-1.63-2.46-1.358-3.509 3.328-12.86 6.597-25.746 10.424-38.461 2.486-8.259 5.609-16.355 8.91-24.332 3.593-8.681 3.64-8.993-5.286-12.674-11.061-4.561-21.217-10.415-28.502-20.686.043-.44.263-.653.263-.653 10.268 1.866 20.47 4.323 30.817 5.47 18.932 2.099 37.169-1.685 54.34-9.524 10.543-4.812 20.431-11.059 30.608-16.67 1.131-.625 2.23-1.31 3.342-1.967l1.216.832c-1.408 2.4-2.374 5.26-4.3 7.123-8.447 8.168-16.277 16.903-27.3 22.229-10.904 5.268-14.061 15.116-10.542 29.68 3.572 14.786 5.725 29.68 5.581 45.786.001 3.014.032 5.133.062 7.253v9.21q-.837.38-1.673.762c-1.448-2.41-2.896-4.819-4.463-7.568"/><path fill="#1F1E1E" d="M103.302 449.227a8609 8609 0 0 0 4.153-17.683l1.816-.473c1.244 2.237 3.626 4.508 3.56 6.706-1.05 35.495-5.72 70.077-28.752 99.153-11.774 14.863-25.984 14.492-37.868-.26-5.96-7.398-7.839-16.39-10.608-25.068-.602-1.886-1.23-3.763-2.775-5.732-.229 1.75-.744 3.518-.635 5.247.406 6.477 1.222 12.934 1.473 19.415.154 3.951-.176 7.978-.844 11.876-.255 1.49-1.867 3.508-3.207 3.827-1.214.29-3.593-1.047-4.242-2.298-1.564-3.016-3.34-6.383-3.404-9.64-.333-17.118-1.402-34.33 3.61-51.099.562-1.878.961-4.064.568-5.924-1.608-7.607 2.772-12.582 7.383-17.383 1.074-1.119 3.154-1.822 4.688-1.697.684.056 1.579 2.61 1.669 4.074.798 12.95.794 25.99 2.357 38.842.99 8.128 3.668 16.203 6.633 23.9 3.942 10.235 11.807 12.351 21.256 6.58 12.039-7.352 17.917-19.37 21.607-31.943 4.808-16.38 7.724-33.317 11.562-50.42"/><path fill="#1E1D1D" d="M452.58 252.77c2.341-4.201 5.145-8.377 8.631-12.711 2.598-.488 4.5-.955 6.43-1.125 19.196-1.69 38.397-3.332 57.597-4.988 1.177.205 2.353.41 3.689.338 31.476 1.075 62.165 7.03 93.137 10.91l.149 2.467c-2.513.78-4.982 2.011-7.548 2.265-12.245 1.21-24.51 2.96-36.779 3.043-36.12.244-72.246-.223-108.37-.378-5.49-.023-10.983.133-16.937.18"/><path fill="#222121" d="m614.824 11.151 1.326 10.755c4.125-.307 5.765-6.34 11.582-4.18-2.376 3.28-4.348 6.006-6.701 9.256 5.251.687 10.122 1.218 14.949 2.02 1.44.238 2.755 1.233 4.128 1.882-1.383.825-2.682 2.122-4.165 2.388-4.735.847-9.538 1.311-15.117 2.026 1.892 2.3 3.677 4.17 5.061 6.3.558.857.236 2.286.315 3.455-1.065-.1-2.345.142-3.152-.367-2.198-1.384-4.195-3.086-6.748-5.024-.78 5.682-1.363 10.74-2.249 15.745-.204 1.15-1.453 2.115-2.221 3.165-.629-1.034-1.639-2.006-1.82-3.113-.824-5.03-1.414-10.097-2.172-15.778-2.549 1.936-4.52 3.688-6.75 5.001-.888.523-2.347.076-3.546.07.212-1.064.13-2.332.696-3.151 1.394-2.014 3.087-3.82 5.108-6.25-5.663-.747-10.703-1.28-15.684-2.154-1.323-.233-2.462-1.51-3.685-2.308 1.213-.64 2.368-1.65 3.65-1.852 4.926-.777 9.893-1.296 15.799-2.03-1.944-2.327-3.617-4.055-4.929-6.024-.623-.934-.559-2.327-.806-3.513 1.316.168 2.83-.02 3.903.581 1.982 1.11 3.706 2.682 6.195 4.557.743-5.275 1.264-9.97 2.136-14.598.28-1.485 1.486-2.794 2.269-4.184.683 1.317 1.467 2.594 2.014 3.965.363.91.387 1.954.614 3.36M553.31 494.596c9.19 1.761 16.008 5.972 18.638 14.986 1.72 5.896.183 7.194-5.846 6.375-4.863-.661-9.854-1.364-14.695-.952-5.758.49-9.454 4.578-11.678 9.728-2.347 5.436.733 10.06 6.605 9.41 6.074-.673 12.05-2.23 18.069-3.399 1.894-.367 3.79-.727 6.909-1.326-3.118 7.12-8.341 10.306-14.045 11.15-5.904.872-12.374.654-18.134-.854-10.009-2.62-12.53-12.705-5.51-20.342 7.136-7.765 16.124-11.483 26.792-10.697 1.328.098 2.654.226 3.984.28.475.019.957-.14 1.653-.253-1.18-4.79-5.07-6.62-8.926-6.487-5.32.184-10.632 1.643-15.863 2.908-2.271.549-4.449 3.067-6.342-.326-1.812-3.248-1.53-6.911 2.043-7.959 5.096-1.495 10.596-1.616 16.346-2.242"/><path fill="#C83E7A" d="M479.399 93.792c-8.553-6.704-11.544-15.243-9.372-25.35 1.867-8.687 11.147-11.724 18.256-6.303 6.842 5.218 10.873 17.257 8.57 25.595-2.108 7.628-8.561 9.983-17.454 6.058"/><path fill="#242323" d="M253.247 532.637c4.99 4.106 10.008 3.82 15.282 1.591 5.25-2.219 10.574-4.265 15.865-6.387l1.042 1.166c-.582 1.157-.877 2.66-1.79 3.418-10.537 8.75-24.657 12.69-37.37 2.706-7.16-5.624-6.51-13.893 1.417-18.157 6.756-3.634 13.892-4.178 21.28-2.402 1.693.407 3.405.736 5.574 1.201-2.406-5.08-10.444-7.945-17.04-6.622-3.26.654-6.477 1.638-9.764 1.985-1.285.136-3.551-.79-3.856-1.725-.357-1.1.529-3.271 1.57-4.053 7.182-5.394 28.09-1.733 33.192 5.651.563.815 1.267 1.705 1.377 2.623.266 2.206.218 4.449.296 6.677-1.884-.04-3.79.089-5.65-.15-4.926-.63-9.822-1.891-14.75-2.003-4.291-.098-7.897 2.573-8.888 6.746-.526 2.21 1.207 4.958 2.213 7.735"/><path fill="#212020" d="M193.818 507.666c8.617-3.048 16.299-.421 20.584 6.751 3.823 6.4 2.573 14.23-3.957 19.644-4.028 3.34-8.676 6.132-13.429 8.346-6.215 2.895-12.782.002-15.837-6.197-5.46-11.084-.564-22.393 12.639-28.544m14.407 12.823c-1.315-6.336-6.495-8.883-11.768-5.54-5.553 3.523-8.444 8.872-8.854 15.346-.074 1.167 1.634 3.386 2.735 3.535 6.49.882 15.931-5.967 17.887-13.341"/><path fill="#51A2CC" d="M198.324 169.945c-9.866-7.022-12.357-20.771-5.805-30.144 5.392-7.715 15.462-7.386 20.004.8 4.245 7.652 4.174 15.587.462 23.401-2.455 5.17-8.188 7.428-14.66 5.943"/><path fill="#212020" d="M373.523 265.824c-.395-2.06-.426-4.18-.377-6.68 25.396-6.063 50.713-11.748 76.472-17.508-.513 3.526-1.468 7.128-2.58 11.072-24.977 1.778-49.27 6.234-73.515 13.116"/><path fill="#252424" d="M487.35 371.905c1.585-.994 3.237-2.257 4.515-1.952.93.223 1.954 2.527 1.927 3.883-.168 8.322-.47 16.649-1.08 24.948-.172 2.335-1.526 4.582-2.337 6.87-1.845-1.6-4.118-2.907-5.455-4.856-4.196-6.117-8.039-12.476-12.019-18.74q-.656.09-1.313.184c0 6.37-.112 12.741.051 19.106.073 2.829-.658 4.61-3.739 4.595-3.228-.014-3.087-2.345-3-4.587.34-8.822.577-17.65 1.118-26.461.101-1.643 1.52-4.601 2.163-4.556 2.056.144 4.799.85 5.904 2.35 4.022 5.458 7.486 11.326 12.285 16.957.296-5.78.592-11.559.98-17.741"/><path fill="#222121" d="M644.967 530.423c8.085.43 15.826.666 23.883.91-5.475 4.1-11.131 8.386-18.647 8.84-6.39.385-12.376-.497-15.578-7.265-3.426-7.24 1.488-20.866 10.127-25.188 5.066-2.535 10.974-3.74 16.646-4.577 3.488-.515 7.692.383 8.418 5.137.673 4.4-2.685 6.642-6.034 7.349-4.957 1.044-10.18 1.47-15.238 1.194-4.377-.24-7.322.224-8.773 4.954-1.49 4.853 1.614 6.575 5.196 8.646m16.159-21.23c-4.628-2.293-6.12-1.976-8.711 1.847 5.823 1.685 7.216 1.504 8.71-1.847M173.53 535.493c-9.088 8.937-24.77 8.335-32.844-.93-4.543-5.213-4.63-12.233.329-17.102 6.176-6.064 13.587-10.06 22.283-11.269 1.45-.201 3.341-.423 4.374.3 1.595 1.116 2.626 3.039 3.896 4.62-1.425.926-2.79 2.529-4.286 2.664-7.534.682-13.595 4.14-18.875 9.243-4.14 4.002-3.604 7.566 2.05 8.891 5.737 1.345 11.817 1.182 17.728 1.84 1.869.208 3.68.931 5.345 1.743"/><path fill="#EAB54D" d="M335.855 152.126c2.432-5.402 6.621-6.71 11.675-6.096 4.762.578 7.719 3.666 8.237 8.086.585 4.992.583 10.188-.121 15.16-.74 5.225-5.008 7.13-9.894 7.352-5.054.23-9.592-2.554-10.268-7.596-.724-5.409.083-11.022.37-16.906"/><path fill="#212020" d="M273.931 387.999c.037-5.163-.23-9.86.283-14.47.163-1.47 2.377-3.82 3.692-3.846 3.903-.08 7.983.298 11.687 1.467 2.7.852 6.486 2.908 6.94 5.034.548 2.571-1.292 6.314-3.234 8.572-2.04 2.372-5.424 3.59-8.608 5.55 4.177 2.92 8.247 5.451 11.895 8.488 1.278 1.064 1.518 3.374 2.232 5.115-1.97-.002-4.392.732-5.823-.147-4.212-2.59-8.03-5.82-12.955-9.513.299 3.161.882 5.376.573 7.459-.205 1.39-1.68 2.592-2.587 3.879-1.361-1.033-3.783-1.96-3.897-3.116-.456-4.62-.195-9.31-.198-14.472m14.602-6.865 3.127-4.33-11.118-.96-.582 9.922c3.146-1.641 5.574-2.908 8.573-4.632"/><path fill="#232222" d="M233.044 529.613c.018 3.558.018 6.664.018 9.77l-1.221.798c-1.742-2.081-4.256-3.9-5.064-6.296-1.684-4.991-3.287-10.26-3.458-15.462-.431-13.129-.165-26.287.137-39.426.042-1.805 1.591-4.794 2.94-5.11 3.289-.771 4.653 2.115 4.859 4.913.377 5.136.339 10.3.517 15.452.404 11.637.834 23.273 1.272 35.361"/><path fill="#212020" d="M330.41 399.318c-2.995 2.267-5.505 5.002-8.59 6.065-7.734 2.666-14.324-1.65-14.643-9.831-.222-5.676.719-11.493 1.867-17.097.926-4.522 3.446-8.363 8.805-8.804 7.139-.587 12.27 2.044 14.593 7.916 2.914 7.365 2.158 14.589-2.031 21.751m-4.299-5.935c1.829-4.802 2.721-9.707-.261-14.274-.863-1.32-3.086-2.495-4.637-2.437-1.914.072-5.17 1.202-5.425 2.393-1.154 5.4-2.17 11.025-1.852 16.489.284 4.876 4.996 6.19 8.748 2.935 1.327-1.151 2.14-2.892 3.427-5.106"/><path fill="#232222" d="M189.603 396.411c-.915 2.396-1.246 4.724-2.485 6.367-1.065 1.411-3.168 2.04-4.812 3.015-.456-1.66-1.736-3.639-1.236-4.927 3.64-9.383 7.55-18.665 11.62-27.87.615-1.39 2.648-3.214 3.776-3.056 1.566.22 3.692 1.856 4.192 3.35 2.31 6.907 4.127 13.978 6.15 20.983.689 2.385 1.918 4.72 2.047 7.124.091 1.688-1.261 3.454-1.969 5.185-1.39-1.035-3.39-1.783-4.041-3.166-1.326-2.819-1.925-5.98-3.134-10.044-3.32.895-6.62 1.785-10.108 3.04m3.97-7.487 4.733-.565c-.666-2.788-1.229-5.141-1.79-7.494l-1.216.037c-.847 2.583-1.694 5.165-1.726 8.022"/><path fill="#55A4CD" d="M406.506 594.695c-2.658 5.994-4.504 11.75-2.68 19.889l8.236-7.86c-2.612-1.706-5.954-2.963-5.89-4.011.242-3.926 3.854-2.471 6.275-2.736 1.645-.18 3.358-.307 4.973-.042 1.892.31 3.71 1.07 5.56 1.635l-3.168 4.549-1.06-.385c.22 2.455.746 4.934.561 7.359-.138 1.816-1.192 3.562-1.838 5.34l-4.909-3.507c-.435.358-1.557 1.98-2.977 2.304-2.914.666-6.394 1.61-8.861.578-1.87-.782-3.392-4.389-3.569-6.846-.56-7.788 1.275-15.127 5.79-21.712 2.6-3.795 6.12-4.903 10.389-4.198 1.098.182 2.623.6 3.061 1.399 1.047 1.907 1.743 4.07 2.157 6.212.093.485-1.964 2.04-2.305 1.843-1.64-.945-3.03-2.322-5.466-4.338-.94.966-2.51 2.583-4.279 4.527"/><path fill="#222121" d="M401.393 405.492c-4.343.982-6 .166-5.6-4.654.753-9.073.672-18.222.759-27.34.04-4.236 2.73-5.379 5.4-3.486 6.275 4.45 12.414 9.268 17.791 14.74 3.11 3.163 1.948 8.28-2.255 11.34-4.892 3.565-10.46 6.202-16.095 9.4m6.133-24.653-4.742-3.44V398.4c1.611-.68 2.537-1.01 3.409-1.448 10.286-5.18 10.686-8.451 1.333-16.113"/><path fill="#242323" d="M447.492 375.745c-3.237-.004-6.038-.004-9.116-.004v10.352c3.231-.179 6.32-.646 9.351-.396 1.571.13 3.038 1.529 4.551 2.354-1.38.998-2.648 2.574-4.164 2.868-2.882.56-5.905.387-9.406.541l.43 8.413c4.725-.222 9.16-.614 13.582-.514 1.161.026 2.288 1.579 3.43 2.43-1.162 1.083-2.223 2.944-3.502 3.108-4.755.609-9.581.678-14.383.914-3.803.188-5.737-2.366-5.838-5.465-.315-9.604-.115-19.225-.115-29.643 5.647-.24 11.406-.617 17.165-.607 1.069.002 2.135 1.564 3.203 2.406-1.584 1.082-3.167 2.164-5.188 3.243"/><path fill="#232222" d="M540.732 396.843c-.014-7.806.061-15.136-.107-22.46-.06-2.616.509-4.243 3.422-4.235 4.498.011 9.009-.175 13.483.147 1.165.084 2.215 1.744 3.318 2.68-1.145.969-2.207 2.62-3.452 2.774-3.236.396-6.552.133-10.097.133v10.957c2.433-.131 4.916-.658 7.245-.267 1.896.318 3.607 1.734 5.4 2.664-1.666.94-3.239 2.353-5.022 2.707-2.369.47-4.901.116-7.625.116v7.532c3.505 0 7.118-.317 10.63.136 1.711.221 3.236 1.881 4.844 2.89-1.538.846-3.003 2.2-4.63 2.437-3.773.547-7.624.569-11.444.776-5.802.315-6.427-.315-6.079-6.013.05-.83.072-1.663.114-2.974"/><path fill="#222121" d="M347.454 376.5c2.094 5.79 4.023 11.223 6.468 18.111 2.148-7.988 4.04-14.506 5.607-21.1.635-2.675 1.504-4.41 4.574-3.666 3.585.87 2.306 3.423 1.791 5.59-1.985 8.359-3.934 16.728-6.13 25.031-.519 1.962-1.946 3.684-2.955 5.516-2.377-1.455-5.863-2.357-6.915-4.47-2.784-5.594-4.49-11.72-6.675-17.617-1.092-2.947-2.517-5.792-3.337-8.806-.37-1.362.368-3.026.604-4.553 1.788.46 3.862.518 5.269 1.517.984.698 1.055 2.682 1.7 4.447"/><path fill="#55A4CD" d="M286.977 584.854c5.386-.886 9.233 1.152 11.625 5.88 3.45 6.816 2.101 17.813-2.886 23.536-3.443 3.952-8.953 5.55-13.541 3.882-5.076-1.846-6.285-6.037-6.25-10.789.067-9.107 1.526-17.617 11.052-22.51m1.646 27.686c5.348-4.852 7.272-12.858 4.584-19.076-1.868-4.32-5.35-5.043-7.103-.88-2.177 5.171-3.12 11.001-3.72 16.64-.318 2.977 2.146 4.724 6.24 3.316"/><path fill="#5AA6CE" d="M382.652 604.893c-1.448-.025-2.445-.047-3.442-.045-6.237.01-6.237.012-5.73 6.799 3.884 0 7.807-.18 11.697.102 1.289.094 2.49 1.379 3.733 2.12-1.2 1.049-2.266 2.746-3.625 3.028-4.477.929-9.053 1.398-13.604 1.94-3.093.369-5.206-.434-4.968-4.24.539-8.616 1.011-17.238 1.337-25.864.107-2.818.893-4.473 4.023-4.257 4.127.283 8.291.263 12.372.848 1.551.223 2.914 1.764 4.363 2.704-1.514.96-2.941 2.52-4.559 2.751-3.087.443-6.282.129-9.892.129v8.343c2.878 0 5.852-.31 8.71.13 1.432.22 2.653 1.806 3.97 2.775-1.312.917-2.624 1.834-4.385 2.737"/><path fill="#EBB752" d="M87.04 591.192c2.446-2.183 4.52-4.413 7.056-5.794 4.491-2.445 9.826-.074 12.262 5.001 3.402 7.085 1.237 19.66-4.326 25.229-3.141 3.144-6.75 3.925-10.965 2.47-4.007-1.383-6.44-4.08-7.012-8.235-.876-6.365-.47-12.587 2.985-18.671m14.887 9.912c-.007-1.82.445-3.805-.137-5.418-.72-1.993-2.068-4.882-3.567-5.168-1.639-.312-4.38 1.465-5.554 3.107-3.479 4.867-3.65 10.583-2.28 16.19.924 3.787 4.198 4.696 6.625 1.66 2.175-2.718 3.25-6.317 4.913-10.37"/><path fill="#222121" d="M591.425 497.397c3.548-.623 6.718-1.06 9.888-1.496l.544 1.931c-1.492 1.185-2.87 2.565-4.495 3.522-7.28 4.285-10.773 10.486-10.417 19.004.216 5.15.032 10.32-.117 15.478-.05 1.726-.547 3.439-.839 5.157l-1.427.373c-1.175-2.379-3.194-4.692-3.383-7.147-.954-12.396-1.51-24.826-1.963-37.253-.048-1.317 1.49-2.692 2.292-4.04 1.136.784 2.597 1.34 3.341 2.4 1.623 2.311 3.318 3.716 6.576 2.071"/><path fill="#201F1F" d="M262.529 383.254c-3.953 3.512-7.42 7.118-11.498 9.79-2.77 1.817-4.595 3.24-3.893 6.84.465 2.386.913 5.503-2.83 5.606-3.559.099-3.402-2.793-3.392-5.381.038-9.786.016-19.572.016-29.241 5.4-2.61 18.48-.935 21.417 3.46 1.369 2.05.345 5.698.18 8.926m-7.348-6.947-7.873-1.495v14.473c3.554-3.06 6.395-5.22 8.865-7.745 1.337-1.366 2.587-3.385-.992-5.233"/><path fill="#252424" d="M296.335 507.27c-4.248 2.98-3.42 5.189.48 6.984 3.16 1.454 6.34 2.862 9.516 4.28 6.111 2.727 8.868 6.616 8.785 11.978-.094 6.06-4.506 7.98-9.067 9.829-6.365 2.58-11.469 1.745-15.865-3.283 3.749-.787 6.988-1.565 10.263-2.132 4.433-.767 9.764-.892 10.296-6.632.542-5.848-4.947-6.68-9.036-8.213-2.941-1.102-6.22-1.473-8.947-2.924-2.245-1.195-5.398-3.44-5.47-5.321-.11-2.877 1.338-6.729 3.492-8.548 2.753-2.327 6.774-3.47 10.435-4.256 1.546-.332 3.566 1.546 5.37 2.419-1.242 1.27-2.283 2.914-3.776 3.716-1.848.994-4.072 1.291-6.476 2.104"/><path fill="#222121" d="M609.052 523.084c-.576-7.42-1.306-14.377-1.553-21.35-.063-1.79.992-4.655 2.275-5.166 1.328-.53 3.526 1.294 5.402 1.912 1.662.547 3.42 1.241 5.107 1.174 2.926-.116 5.83-.77 9.303-.437C614.585 509 616.613 524.714 614.678 539c-4.076-2.38-4.542-3.726-5.626-15.916"/><path fill="#232222" d="M512.22 390.254c.357 9.596 3.7 11.853 11.9 8.33 2.519-1.083 5.313-1.815 6.19 1.25.338 1.183-2.194 4.16-3.974 4.818-13.221 4.894-22.955-3.08-20.452-16.89.805-4.438 2.802-8.814 5.011-12.797 2.256-4.067 6.367-6.195 10.997-4.836 2.098.615 3.761 3.059 5.293 4.941.283.348-1.19 2.927-1.542 2.86-1.981-.38-3.867-1.255-6.736-2.31-4.508 2.796-5.476 8.567-6.687 14.634"/><path fill="#EBB855" d="M158.332 618.168c-12.209 1.854-12.203 1.854-12.188-9.671.008-6.315.094-12.631-.06-18.942-.077-3.167 1.047-4.63 4.314-4.507 3.485.13 7.005-.224 10.455.148 1.374.149 2.6 1.676 3.893 2.576-1.495.928-3.006 2.68-4.482 2.65-9.014-.183-9.348.112-7.507 10.24 2.52-.116 5.147-.55 7.675-.22 1.25.162 2.316 1.73 3.465 2.662-1.161.935-2.223 2.465-3.505 2.68-2.536.427-5.194.127-8.037.127v7.006c3.204 0 6.318-.283 9.342.116 1.582.21 3.006 1.618 4.502 2.485-1.475.868-2.885 1.892-4.45 2.542-.853.354-1.969.074-3.417.108"/><path fill="#C9437E" d="M602.367 613.332c-3.139 1.876-5.823 4.051-8.892 5.06-5.789 1.904-10.72-1.522-11.524-7.564-1.007-7.562.482-14.608 5.116-20.754 3.122-4.14 7.308-6.389 12.604-5.088 1.634.402 3.816 1.524 4.324 2.857.73 1.917.398 4.379-.025 6.5-.11.551-2.923 1.336-3.31.917-1.154-1.246-1.718-3.037-2.873-5.33-.611.175-2.097.26-3.171.968-4.619 3.043-8.078 14.242-6.25 19.52.894 2.58 2.495 3.562 4.935 2.136 1.703-.994 3.463-2.126 4.715-3.604 2.035-2.403 4.23-4.41 6.89-1.694.606.62-1.435 3.83-2.539 6.076"/><path fill="#C9407C" d="M628.004 590.204a509 509 0 0 0-7.79.67l.55 9.183c3.173-.16 6.121-.525 9.036-.345 1.15.071 2.224 1.36 3.333 2.093-1.014 1.028-1.915 2.76-3.064 2.944-2.735.436-5.586.14-8.754.14v8.187c4.085-.19 7.868-.608 11.619-.41 1.335.072 2.59 1.64 3.883 2.524-1.301.942-2.512 2.5-3.92 2.708-3.926.578-7.933.604-11.91.833-4.046.233-5.786-2.16-5.941-5.745-.344-7.973-.624-15.959-.503-23.933.019-1.248 2.13-3.275 3.531-3.532 3.401-.623 6.98-.713 10.435-.417 1.743.15 3.375 1.606 5.057 2.472-1.71.876-3.421 1.752-5.562 2.628"/><path fill="#EBB64F" d="M31.13 585.057c2.63-.032 4.834-.328 6.93.022 1.159.193 2.136 1.47 3.195 2.258-1.092.94-2.073 2.473-3.299 2.702-3.03.566-6.171.536-9.76.778l.72 9.31c3.09-.205 5.876-.666 8.608-.447 1.246.1 2.383 1.543 3.57 2.377-1.098.953-2.097 2.544-3.312 2.73-2.717.414-5.541.13-8.538.13v8.201c3.874-.231 7.463-.723 11.016-.53 1.565.084 3.056 1.558 4.58 2.401-1.406 1.007-2.707 2.64-4.239 2.897-3.736.626-7.581.573-11.377.869-4.018.313-5.961-1.946-6.15-5.513-.43-8.116-.65-16.25-.634-24.376.002-1.153 1.578-2.829 2.804-3.323 1.608-.649 3.593-.364 5.885-.486"/><path fill="#53A3CD" d="M444.677 604.944c-2.733.109-5.017.212-7.413.321v7.857c3.912-.229 7.514-.72 11.078-.517 1.538.087 2.995 1.609 4.488 2.479-1.436.976-2.773 2.552-4.328 2.807-3.743.614-7.586.623-11.39.851-4.325.259-5.94-2.339-6.088-6.12-.306-7.799-.63-15.605-.521-23.403.018-1.31 2.04-3.516 3.368-3.71 4.085-.593 8.29-.584 12.431-.41 1.03.044 1.998 1.595 2.995 2.453-1.01.868-1.925 2.311-3.046 2.495-3.074.501-6.235.474-9.96.69l.468 8.946c2.812 0 5.425-.239 7.964.09 1.517.197 2.919 1.285 4.372 1.972-1.323 1.064-2.646 2.129-4.418 3.199"/><path fill="#55A4CD" d="M264.35 586.765c.635.832 1.194 1.35 1.311 1.954.549 2.829 1.199 6.176-2.746 6.6-1.214.13-2.752-2.746-5.053-5.23-.504.293-2.58.914-3.772 2.298-4.096 4.757-5.569 10.53-4.99 16.696.39 4.133 2.63 5.134 6.16 2.878 1.777-1.137 2.995-3.28 4.85-4.127 1.773-.808 4.043-.524 6.094-.72-.511 1.686-.501 4.016-1.635 4.933-3.051 2.468-6.366 4.927-9.99 6.302-5.594 2.125-10.791-1.453-11.607-7.383-1.038-7.539.424-14.545 4.971-20.752 4.155-5.672 9.931-6.968 16.407-3.449"/><path fill="#C9437E" d="M660.505 599.525c1.138 1.19 1.875 2.287 2.612 3.384-1.174.678-2.28 1.726-3.535 1.954-2.248.407-4.585.321-7.384.467l-.474 7.528c3.826 0 7.31-.267 10.718.129 1.42.165 2.677 1.743 4.008 2.679-1.359.808-2.647 2.121-4.09 2.322-3.273.454-6.632.242-9.938.519-4.177.349-6.736-1.661-6.711-5.91.046-7.99.141-15.987.61-23.957.076-1.296 2.07-3.377 3.362-3.53 3.6-.427 7.324-.254 10.943.164 1.24.144 2.315 1.715 3.466 2.634-1.166.899-2.24 2.371-3.517 2.575-2.56.407-5.232.12-8.205.12v9.26c2.58-.143 5.157-.287 8.135-.338"/><path fill="#EBB752" d="M71.687 616.977c-5.97 1.838-12.068 4.038-16.87-.597-4.703-4.538-3.492-10.907-1.819-16.497 1.206-4.031 3.074-8.151 5.672-11.415 4.553-5.72 13.664-5.15 15.766.662.571 1.58-.498 3.754-.813 5.655-1.43-.92-3.502-1.517-4.162-2.826-1.523-3.02-3.366-2.59-5.056-.813-4.987 5.247-6.856 11.665-6.001 18.796.446 3.716 3.32 3.668 6.076 3.188 1.434-.25 2.757-1.143 4.192-1.392 1.694-.293 3.454-.204 5.186-.28-.608 1.786-1.216 3.573-2.17 5.519"/><path fill="#232222" d="M168.52 399.113c2.425.14 5.763-1.839 5.712 1.899-.019 1.345-3.23 3.403-5.25 3.806-4.209.84-8.596.764-12.906 1.123-3.245.27-4.685-1.269-4.416-4.393.797-9.277 1.5-18.569 2.67-27.8.179-1.402 2.656-2.513 4.07-3.758.791 1.67 2.381 3.412 2.24 5-.726 8.23-1.894 16.42-3 25.365 4.011-.456 7.247-.823 10.88-1.242"/><path fill="#C9437E" d="M566.786 611.786c-1.323 2.888-.184 8.08-5.032 6.668-4.721-1.375-1.748-5.481-.783-7.972 1.892-4.882 1.371-8.75-2.23-12.628-2.227-2.398-3.978-5.348-5.428-8.303-.608-1.24.115-3.134.233-4.73 1.665.645 3.918.822 4.878 2.028 2.314 2.905 4.022 6.29 6.604 10.512 1.258-3.635 2.187-6.02 2.904-8.468.784-2.679 2.13-5.019 5.116-3.61.942.443 1.28 3.733.784 5.387-2.089 6.977-4.597 13.828-7.046 21.116"/><path fill="#57A5CE" d="M325.729 617.85c-4.098.215-7.749.344-11.376.711-3.18.322-5.25-.314-5.086-4.116.342-7.965.558-15.935.864-23.902.091-2.383-.66-5.647 3.198-5.468 3.849.18 2.724 3.458 2.742 5.78.054 7.132.02 14.264.02 21.704 3.48-.167 6.763-.645 9.976-.352 1.762.16 4.665 1.395 4.87 2.537.637 3.555-2.5 2.997-5.208 3.106"/><path fill="#C9437E" d="M534.097 589.429c.203-2.77.779-5.288 3.668-4.267 1.235.437 2.34 3.046 2.397 4.706.254 7.44.11 14.893.11 23.065 1.979-.143 4.88-.694 7.704-.429 1.72.161 3.323 1.58 4.98 2.434-1.43 1.036-2.747 2.7-4.311 2.98-3.566.639-7.261.52-10.89.855-3.46.321-4.82-1.038-4.627-4.566.44-8.102.646-16.217.969-24.778"/><path fill="#EBB752" d="M136.284 612.53c3.232 3.455 1.397 4.98-1.88 5.41-3.936.517-7.933.554-11.897.878-3.208.262-4.566-1.072-4.407-4.334.396-8.11.617-16.23.98-24.343.107-2.412-.296-5.475 3.598-5.14 3.566.305 2.58 2.914 2.534 5.253-.146 7.283-.054 14.57-.054 22.59 3.061-.135 6.908-.305 11.126-.314"/><path fill="#55A4CD" d="M339.789 618.03c-.413-10.25-.596-20.21-.397-30.161.02-1.011 2.333-1.976 3.583-2.962.872 1.456 2.45 2.888 2.499 4.371.253 7.75.118 15.513.118 23.639 3.162 0 6.326-.29 9.394.13 1.405.192 2.62 1.777 3.922 2.731-1.342.854-2.645 2.36-4.034 2.443-4.9.297-9.828.107-15.085-.191"/><path fill="#222121" d="M376.402 402.2c.223-9.545.522-18.665.649-27.787.036-2.586.301-4.911 3.456-4.817 3.202.095 3.268 2.574 3.19 5.075-.28 8.949-.386 17.904-.797 26.846-.06 1.281-1.439 2.501-2.207 3.75-1.427-.882-2.854-1.763-4.291-3.068"/><path fill="#201F1F" d="M202.202 608.895c-.722-.461-1.138-.736-1.53-1.039-7.564-5.84-7.452-8.212.567-13.347 5.05-3.234 7.544 1.323 10.545 3.65 3.11 2.41.88 4.747-1.019 6.63-2.27 2.25-3.567 6.6-8.563 4.106M485.73 595.699c4.42-2.947 11.985-.744 13.036 3.955.376 1.678-1.266 4.25-2.678 5.773-1.653 1.785-4.772 4.49-6.003 3.949-3.32-1.46-6.386-4.12-8.6-7.03-.544-.715 2.55-4.2 4.245-6.647M122.319 526.32c-.102-6.508-.102-12.59-.102-19.047 8.736 2.825 11.24 22.962 4.028 29.76a816 816 0 0 1-3.926-10.712"/><path fill="#252424" d="M665.34 479.47c2.323-.827 4.312-1.47 6.657-2.227-3.283 9.65-20.401 17.426-30.494 12.74 7.835-3.443 15.67-6.886 23.837-10.513"/><path fill="#57A5CE" d="M372.473 576.394c-.39-1.492-1-3.143-.427-3.937.503-.695 2.624-.969 3.531-.488 3.197 1.695 6.254 3.692 9.18 5.827.58.423.67 2.759.44 2.85-1.417.566-3.301 1.432-4.449.913-2.828-1.28-5.342-3.255-8.275-5.165"/><path fill="#C9437E" d="M629.421 573.86c1.549.466 2.757 1.015 3.965 1.563-.597 1.07-.932 2.547-1.84 3.13-2.494 1.597-5.127 3.12-7.914 4.045-1.166.387-2.858-.809-4.31-1.285.706-1.279 1.101-3.043 2.183-3.737 2.339-1.502 5.03-2.456 7.916-3.716"/><path fill="#EBB855" d="M29.344 582.842c-.809-1.399-1.8-3.778-1.598-3.885 3.582-1.882 7.268-3.595 11.047-5.04.597-.229 2.08.837 2.54 1.65.278.496-.386 2.112-1.029 2.44-3.46 1.773-7.046 3.3-10.96 4.835"/><path fill="#252424" d="M123.636 495.846c1.633 1.672 3.026 3.233 4.06 5.004.164.281-1.584 2.3-1.954 2.165-1.868-.684-4.202-1.396-5.194-2.884-1.662-2.495-.615-4.404 3.088-4.285"/><path fill="#EAB54D" d="M289.003 175.992c-.314-.084-.518-.273-.722-.462.253-.065.507-.13.906-.027.147.169-.073.383-.184.489"/><path fill="#C73D7A" d="M445.95 258.946c-.131.322-.36.538-.589.754-.033-.25-.066-.498.101-.911.2-.164.392.05.489.157"/><path fill="#FDFCFD" d="M525.113 233.623c-19.075 1.979-38.276 3.62-57.473 5.31-1.929.17-3.831.638-6.158.904 12.306-22.718 20.01-47.215 26.127-72.295.275-1.126.468-2.271 1.019-4.977 7.269 27.107 13.558 53.293 36.485 71.058"/><path fill="#FDFEFE" d="M159.193 291.155c6.261-9.761 13.55-19.104 19.576-29.2 5.933-9.94 10.584-20.645 16.561-32.533 1.678 13.43 2.948 25.559 4.785 37.602 1.195 7.832 3.215 15.538 4.92 23.677-15.087.432-30.227.487-45.842.454"/><path fill="#53A2CB" d="M153.078 295.097c-.135.378-.491.549-.848.72-.057-.271-.115-.542-.015-1.052.32-.119.48.003.863.332"/><path fill="#FCFCFB" d="M419.17 480.684c-.11-1.093-.095-1.768-.21-2.42-1.835-10.512-1.879-10.98 8.868-11.898 12.017-1.026 24.114-1.162 36.18-1.501 1.949-.055 3.924.851 5.998 1.34-3.943 10.357-33.697 25.007-48.673 24.448-.687-3.125-1.393-6.333-2.163-9.969"/><path fill="#F9F9F8" d="M208.203 520.892c-1.934 6.971-11.375 13.82-17.865 12.938-1.1-.15-2.809-2.368-2.735-3.535.41-6.474 3.301-11.823 8.854-15.345 5.273-3.344 10.453-.797 11.746 5.942"/><path fill="#F1F1F1" d="M661.367 509.518c-1.736 3.026-3.129 3.207-8.952 1.522 2.59-3.823 4.083-4.14 8.952-1.522M288.248 381.363c-2.714 1.495-5.142 2.762-8.288 4.403l.582-9.921c3.535.305 6.684.576 11.118.96-1.552 2.148-2.34 3.239-3.412 4.558"/><path fill="#F6F6F6" d="M325.993 393.754c-1.168 1.843-1.981 3.584-3.308 4.735-3.752 3.254-8.464 1.94-8.748-2.935-.318-5.464.698-11.089 1.852-16.49.255-1.19 3.51-2.32 5.425-2.392 1.55-.058 3.774 1.116 4.637 2.437 2.982 4.567 2.09 9.472.142 14.645"/><path fill="#F1F1F1" d="M193.167 388.787c.44-2.72 1.286-5.301 2.133-7.884l1.215-.037 1.791 7.494c-1.898.227-3.315.396-5.14.427M407.828 381.052c9.051 7.449 8.651 10.72-1.635 15.9-.872.439-1.798.768-3.409 1.448v-21c1.75 1.269 3.246 2.354 5.044 3.652"/><path fill="#FDFEFE" d="M288.266 612.711c-3.736 1.236-6.2-.51-5.883-3.488.6-5.639 1.544-11.469 3.721-16.64 1.753-4.163 5.235-3.44 7.103.88 2.688 6.218.764 14.224-4.94 19.248"/><path fill="#FEFDFA" d="M101.876 601.526c-1.612 3.632-2.687 7.23-4.862 9.95-2.427 3.035-5.701 2.126-6.626-1.661-1.368-5.607-1.198-11.323 2.281-16.19 1.174-1.642 3.915-3.419 5.554-3.107 1.499.286 2.847 3.175 3.567 5.168.582 1.613.13 3.598.086 5.84"/><path fill="#F6F6F6" d="M255.554 376.498c3.206 1.657 1.956 3.676.62 5.042-2.471 2.524-5.312 4.685-8.866 7.745v-14.473c2.775.527 5.324 1.011 8.246 1.686"/></svg>